<svg width="421" height="107" viewBox="0 0 421 107" fill="none" xmlns="http://www.w3.org/2000/svg">
<path d="M0 34.0989C0.977438 33.8049 2.49247 33.511 4.54509 33.217C6.69545 32.9231 8.89468 32.7761 11.1428 32.7761C13.2932 32.7761 15.1992 32.9231 16.8608 33.217C18.6202 33.511 20.0863 34.0989 21.2593 34.9808C22.4322 35.8626 23.3119 37.0875 23.8984 38.6552C24.5826 40.125 24.9247 42.0847 24.9247 44.5343V76.1346C24.9247 80.152 25.9021 83.0426 27.857 84.8063C29.8119 86.4721 32.6464 87.3049 36.3607 87.3049C38.6088 87.3049 40.4171 87.109 41.7855 86.717C43.2516 86.3251 44.3757 85.9332 45.1576 85.5412V34.0989C46.1351 33.8049 47.6501 33.511 49.7027 33.217C51.8531 32.9231 54.0523 32.7761 56.3004 32.7761C58.4508 32.7761 60.3568 32.9231 62.0184 33.217C63.7778 33.511 65.244 34.0989 66.4169 34.9808C67.5898 35.8626 68.4695 37.0875 69.056 38.6552C69.7402 40.125 70.0823 42.0847 70.0823 44.5343V89.2157C70.0823 94.1149 68.0297 97.7894 63.9244 100.239C60.5034 102.395 56.3982 104.011 51.6087 105.089C46.917 106.265 41.7855 106.853 36.2141 106.853C30.9359 106.853 26.0487 106.265 21.5525 105.089C17.154 103.913 13.342 102.101 10.1165 99.6511C6.89094 97.2015 4.39847 94.0659 2.63908 90.2445C0.879694 86.3251 0 81.6218 0 76.1346V34.0989Z" fill="#F4F4F4"/>
<path d="M145.447 83.1896C145.447 90.6364 142.662 96.4666 137.09 100.68C131.519 104.893 123.308 107 112.459 107C108.354 107 104.542 106.706 101.023 106.118C97.504 105.53 94.4739 104.648 91.9326 103.473C89.489 102.199 87.5341 100.631 86.068 98.7692C84.6996 96.9075 84.0154 94.7028 84.0154 92.1552C84.0154 89.8036 84.5041 87.8439 85.4815 86.2761C86.459 84.6104 87.6319 83.2386 89.0003 82.1607C91.8349 83.7285 95.0604 85.1493 98.6769 86.4231C102.391 87.5989 106.643 88.1868 111.432 88.1868C114.463 88.1868 116.76 87.7459 118.323 86.864C119.985 85.9822 120.816 84.8063 120.816 83.3365C120.816 81.9647 120.229 80.8869 119.056 80.103C117.884 79.3191 115.929 78.6822 113.192 78.1923L108.793 77.3104C100.29 75.6447 93.9363 73.0481 89.7334 69.5206C85.6281 65.8951 83.5755 60.7509 83.5755 54.0879C83.5755 50.4625 84.3575 47.1799 85.9214 44.2404C87.4853 41.3008 89.6845 38.8512 92.5191 36.8915C95.3536 34.9318 98.7258 33.413 102.636 32.3352C106.643 31.2573 111.042 30.7184 115.831 30.7184C119.447 30.7184 122.82 31.0124 125.947 31.6003C129.173 32.0902 131.959 32.8741 134.305 33.9519C136.65 35.0298 138.508 36.4506 139.876 38.2143C141.244 39.88 141.929 41.8887 141.929 44.2404C141.929 46.494 141.489 48.4538 140.609 50.1195C139.827 51.6873 138.801 53.0101 137.53 54.0879C136.748 53.598 135.575 53.1081 134.011 52.6181C132.447 52.0302 130.737 51.5403 128.88 51.1484C127.023 50.6584 125.117 50.2665 123.162 49.9725C121.305 49.6786 119.594 49.5316 118.03 49.5316C114.805 49.5316 112.312 49.9235 110.553 50.7074C108.793 51.3933 107.914 52.5201 107.914 54.0879C107.914 55.1658 108.402 56.0476 109.38 56.7335C110.357 57.4194 112.214 58.0563 114.951 58.6442L119.496 59.6731C128.88 61.8288 135.526 64.8173 139.436 68.6387C143.444 72.3622 145.447 77.2125 145.447 83.1896Z" fill="#F4F4F4"/>
<path d="M157.497 34.0989C158.475 33.8049 159.99 33.511 162.042 33.217C164.193 32.9231 166.392 32.7761 168.64 32.7761C170.79 32.7761 172.696 32.9231 174.358 33.217C176.117 33.511 177.584 34.0989 178.757 34.9808C179.929 35.8626 180.809 37.0875 181.396 38.6552C182.08 40.125 182.422 42.0847 182.422 44.5343V76.1346C182.422 80.152 183.399 83.0426 185.354 84.8063C187.309 86.4721 190.144 87.3049 193.858 87.3049C196.106 87.3049 197.914 87.109 199.283 86.717C200.749 86.3251 201.873 85.9332 202.655 85.5412V34.0989C203.632 33.8049 205.147 33.511 207.2 33.217C209.35 32.9231 211.55 32.7761 213.798 32.7761C215.948 32.7761 217.854 32.9231 219.516 33.217C221.275 33.511 222.741 34.0989 223.914 34.9808C225.087 35.8626 225.967 37.0875 226.553 38.6552C227.237 40.125 227.58 42.0847 227.58 44.5343V89.2157C227.58 94.1149 225.527 97.7894 221.422 100.239C218.001 102.395 213.895 104.011 209.106 105.089C204.414 106.265 199.283 106.853 193.711 106.853C188.433 106.853 183.546 106.265 179.05 105.089C174.651 103.913 170.839 102.101 167.614 99.6511C164.388 97.2015 161.896 94.0659 160.136 90.2445C158.377 86.3251 157.497 81.6218 157.497 76.1346V34.0989Z" fill="#F4F4F4"/>
<path d="M283.005 50.5604C280.561 50.5604 278.215 50.9524 275.967 51.7363C273.817 52.5201 271.911 53.696 270.249 55.2637C268.685 56.7335 267.415 58.5952 266.437 60.8489C265.46 63.1026 264.971 65.7482 264.971 68.7857C264.971 74.8608 266.682 79.4171 270.103 82.4547C273.621 85.4922 277.873 87.011 282.858 87.011C285.791 87.011 288.332 86.668 290.482 85.9821C292.633 85.2962 294.539 84.5614 296.2 83.7775C298.155 85.1493 299.621 86.668 300.599 88.3338C301.576 89.9016 302.065 91.8123 302.065 94.0659C302.065 98.0833 300.159 101.219 296.347 103.473C292.535 105.628 287.257 106.706 280.512 106.706C274.355 106.706 268.783 105.824 263.798 104.06C258.813 102.199 254.513 99.6511 250.896 96.4176C247.377 93.0861 244.64 89.1177 242.686 84.5124C240.731 79.9071 239.753 74.8118 239.753 69.2266C239.753 62.7596 240.78 57.1255 242.832 52.3242C244.983 47.4249 247.866 43.4075 251.483 40.272C255.099 37.1365 259.253 34.7848 263.945 33.217C268.734 31.6493 273.768 30.8654 279.046 30.8654C286.084 30.8654 291.509 32.1392 295.321 34.6868C299.133 37.2344 301.039 40.5169 301.039 44.5343C301.039 46.3961 300.599 48.1598 299.719 49.8256C298.839 51.3933 297.813 52.7651 296.64 53.9409C294.979 53.1571 292.975 52.4222 290.629 51.7363C288.283 50.9524 285.742 50.5604 283.005 50.5604Z" fill="#F4F4F4"/>
<path d="M345.061 88.6277C346.723 88.6277 348.531 88.4808 350.486 88.1868C352.539 87.7949 354.054 87.305 355.031 86.717V74.9588L344.475 75.8407C341.738 76.0366 339.49 76.6245 337.73 77.6044C335.971 78.5843 335.091 80.054 335.091 82.0137C335.091 83.9734 335.824 85.5902 337.29 86.864C338.854 88.0398 341.445 88.6277 345.061 88.6277ZM343.888 30.8654C349.166 30.8654 353.956 31.4043 358.257 32.4821C362.655 33.56 366.369 35.2257 369.399 37.4794C372.527 39.6351 374.922 42.4277 376.583 45.8571C378.245 49.1887 379.076 53.1571 379.076 57.7624V90.6854C379.076 93.2331 378.343 95.3397 376.877 97.0055C375.508 98.5733 373.847 99.9451 371.892 101.121C365.538 104.942 356.595 106.853 345.061 106.853C339.881 106.853 335.189 106.363 330.986 105.383C326.881 104.403 323.313 102.934 320.283 100.974C317.351 99.0142 315.054 96.5156 313.392 93.478C311.828 90.4405 311.046 86.913 311.046 82.8956C311.046 76.1346 313.05 70.9414 317.058 67.3159C321.065 63.6905 327.272 61.4368 335.678 60.5549L354.884 58.4973V57.4684C354.884 54.6268 353.614 52.6181 351.072 51.4423C348.629 50.1685 345.061 49.5316 340.369 49.5316C336.655 49.5316 333.039 49.9235 329.52 50.7074C326.001 51.4913 322.824 52.4712 319.99 53.647C318.719 52.7651 317.644 51.4423 316.764 49.6786C315.885 47.8168 315.445 45.9061 315.445 43.9464C315.445 41.3988 316.031 39.3901 317.204 37.9203C318.475 36.3526 320.381 35.0298 322.922 33.9519C325.757 32.8741 329.08 32.0902 332.892 31.6003C336.802 31.1103 340.467 30.8654 343.888 30.8654Z" fill="#F4F4F4"/>
<path d="M393.73 13.228C393.73 9.50457 394.951 6.36905 397.395 3.82142C399.936 1.27381 403.26 0 407.365 0C411.47 0 414.744 1.27381 417.188 3.82142C419.729 6.36905 421 9.50457 421 13.228C421 16.9515 419.729 20.087 417.188 22.6346C414.744 25.1822 411.47 26.456 407.365 26.456C403.26 26.456 399.936 25.1822 397.395 22.6346C394.951 20.087 393.73 16.9515 393.73 13.228ZM419.827 104.354C418.752 104.55 417.139 104.795 414.989 105.089C412.936 105.481 410.835 105.677 408.684 105.677C406.534 105.677 404.579 105.53 402.82 105.236C401.158 104.942 399.741 104.354 398.568 103.473C397.395 102.591 396.466 101.415 395.782 99.9451C395.196 98.3773 394.902 96.3686 394.902 93.919V34.0989C395.978 33.9029 397.542 33.658 399.594 33.364C401.744 32.9721 403.895 32.7761 406.045 32.7761C408.196 32.7761 410.102 32.9231 411.763 33.217C413.523 33.511 414.989 34.0989 416.162 34.9808C417.335 35.8626 418.214 37.0875 418.801 38.6552C419.485 40.125 419.827 42.0847 419.827 44.5343V104.354Z" fill="#F4F4F4"/>
</svg>
